<?xml version="1.0" standalone="no"?>
<!DOCTYPE svg PUBLIC "-//W3C//DTD SVG 20010904//EN"
 "http://www.w3.org/TR/2001/REC-SVG-20010904/DTD/svg10.dtd">
<svg version="1.0" xmlns="http://www.w3.org/2000/svg"
 width="1536.000000pt" height="1024.000000pt" viewBox="0 0 1536.000000 1024.000000"
 preserveAspectRatio="xMidYMid meet">

<g transform="translate(0.000000,1024.000000) scale(0.100000,-0.100000)"
fill="#000000" stroke="none">
<path d="M8195 7729 c-44 -4 -118 -17 -165 -29 -47 -12 -101 -25 -120 -29 -55
-13 -80 -23 -80 -32 0 -5 -9 -9 -20 -9 -11 0 -20 -4 -20 -10 0 -5 -7 -10 -15
-10 -8 0 -15 -4 -15 -10 0 -5 -7 -10 -15 -10 -8 0 -15 -4 -15 -10 0 -5 -9 -10
-20 -10 -11 0 -20 -4 -20 -10 0 -15 -26 -12 -40 5 -14 17 -67 45 -87 45 -7 0
-13 5 -13 10 0 6 -8 10 -18 10 -10 0 -37 9 -60 20 -22 11 -52 20 -65 20 -12 0
-27 4 -32 9 -19 18 -294 43 -395 35 -85 -6 -273 -44 -278 -56 -2 -4 -14 -8
-27 -8 -13 0 -25 -3 -27 -8 -1 -4 -43 -27 -93 -52 -49 -24 -97 -52 -105 -60
-8 -9 -32 -28 -52 -41 -88 -59 -288 -250 -288 -275 0 -8 -4 -14 -10 -14 -20 0
-215 -267 -242 -331 -4 -10 -11 -20 -17 -23 -5 -4 -22 -32 -37 -64 -16 -31
-32 -58 -36 -60 -4 -2 -8 -12 -8 -23 0 -10 -4 -19 -10 -19 -5 0 -10 -9 -10
-20 0 -11 -4 -20 -10 -20 -5 0 -10 -9 -10 -20 0 -11 -4 -20 -10 -20 -5 0 -10
-9 -10 -20 0 -11 -3 -20 -7 -20 -9 0 -33 -49 -33 -67 0 -7 -9 -28 -20 -48 -11
-20 -20 -44 -20 -53 0 -10 -4 -22 -9 -27 -9 -10 -48 -126 -77 -230 -9 -33 -22
-80 -29 -105 -21 -71 -53 -227 -65 -320 -6 -47 -15 -103 -21 -125 -5 -22 -11
-76 -13 -120 -3 -44 -7 -87 -10 -95 -25 -74 0 -1102 27 -1148 11 -17 377 -16
427 1 34 12 35 14 32 56 -2 37 0 42 11 33 19 -16 58 20 82 74 34 77 40 89 54
104 12 13 17 11 35 -15 43 -61 190 -195 214 -195 5 0 15 -7 22 -15 7 -9 19
-14 27 -11 7 3 13 2 13 -2 0 -4 15 -14 33 -22 44 -21 474 -22 527 -1 44 16
123 54 130 61 14 14 90 70 95 70 10 0 35 27 35 38 0 5 13 20 30 33 16 13 30
31 30 40 0 9 6 19 14 22 7 3 24 27 38 54 13 26 29 57 35 68 11 20 29 63 43
100 13 34 47 257 43 280 -1 6 -8 38 -16 71 -17 78 -11 86 79 120 59 22 86 26
189 26 118 1 147 -4 238 -41 l37 -15 0 -62 c0 -35 -5 -66 -11 -70 -6 -4 -8
-19 -5 -38 4 -17 11 -65 16 -106 17 -131 22 -160 31 -166 5 -3 9 -14 9 -24 0
-11 8 -34 18 -52 10 -18 22 -45 25 -60 4 -15 13 -33 20 -40 7 -7 24 -29 37
-48 61 -87 167 -190 195 -190 8 0 15 -4 15 -10 0 -5 9 -10 20 -10 11 0 20 -4
20 -10 0 -5 9 -10 20 -10 11 0 20 -4 20 -10 0 -5 9 -10 19 -10 11 0 21 -6 24
-12 6 -20 501 -18 545 2 17 8 32 18 32 22 0 5 9 8 20 8 11 0 20 5 20 10 0 6 6
10 14 10 8 0 16 7 20 15 3 9 14 19 25 23 33 13 142 121 157 157 8 19 18 35 23
35 5 0 19 23 31 52 55 129 73 247 65 430 -5 90 -3 143 4 155 8 14 10 2 11 -54
0 -39 4 -74 9 -78 6 -3 10 -94 10 -215 0 -120 5 -218 10 -229 6 -10 12 -90 13
-177 2 -105 7 -163 15 -172 9 -9 69 -12 232 -12 l221 0 0 49 c0 28 5 53 10 56
6 3 10 30 10 60 0 30 5 57 10 60 6 3 10 34 10 69 0 34 4 66 9 72 5 5 12 50 15
99 3 50 10 153 17 230 17 203 7 623 -21 810 -5 33 -13 92 -18 130 -6 39 -18
96 -26 128 -9 32 -16 71 -16 87 0 17 -4 30 -10 30 -5 0 -10 18 -10 40 0 22 -4
40 -10 40 -5 0 -10 15 -10 34 0 19 -4 38 -10 41 -5 3 -10 17 -10 31 0 13 -4
24 -10 24 -5 0 -10 10 -10 23 0 26 -21 77 -32 77 -5 0 -8 14 -8 30 0 17 -4 30
-10 30 -5 0 -10 9 -10 20 0 11 -4 20 -10 20 -5 0 -10 9 -10 20 0 11 -4 28 -9
38 -5 9 -19 37 -31 62 -70 140 -116 226 -127 238 -6 6 -15 21 -18 32 -3 11
-11 20 -16 20 -5 0 -9 7 -9 15 0 8 -4 15 -10 15 -5 0 -10 7 -10 15 0 8 -4 15
-10 15 -5 0 -10 7 -10 15 0 8 -4 15 -8 15 -5 0 -15 12 -23 27 -14 28 -32 53
-56 78 -7 8 -13 16 -13 20 0 3 -10 16 -22 29 -13 12 -34 37 -48 56 -50 67
-274 280 -294 280 -7 0 -21 9 -31 20 -10 11 -23 20 -29 20 -7 0 -18 9 -26 20
-8 11 -20 20 -27 20 -7 0 -13 5 -13 10 0 6 -7 10 -15 10 -8 0 -15 5 -15 10 0
6 -9 10 -20 10 -11 0 -20 5 -20 10 0 6 -13 10 -30 10 -16 0 -30 5 -30 10 0 6
-9 10 -20 10 -11 0 -20 5 -20 10 0 6 -9 10 -20 10 -11 0 -20 5 -20 10 0 6 -16
10 -35 10 -19 0 -43 4 -53 9 -9 5 -28 13 -42 19 -35 15 -238 21 -335 11z
m-525 -323 c0 -3 -4 -8 -10 -11 -5 -3 -10 -1 -10 4 0 6 5 11 10 11 6 0 10 -2
10 -4z m-20 -62 c0 -8 -4 -12 -10 -9 -5 3 -10 10 -10 16 0 5 5 9 10 9 6 0 10
-7 10 -16z m8 -36 c15 -19 11 -100 -5 -116 -8 -8 -15 -13 -16 -11 -1 2 -8 15
-15 28 -11 18 -11 25 -2 31 6 4 11 20 10 36 -1 16 -2 32 -1 37 2 11 17 8 29
-5z m-13 -158 c3 -5 16 -10 28 -10 l21 0 -21 -21 c-20 -20 -22 -20 -47 -4 -21
14 -24 20 -15 31 14 17 25 18 34 4z m30 -137 c-28 -27 -32 -28 -51 -9 -20 20
-17 36 6 36 11 0 20 4 20 9 0 5 11 4 25 -2 l24 -12 -24 -22z m13 -72 c28 -15
27 -29 -3 -64 l-25 -28 -25 25 c-30 30 -32 52 -5 61 11 3 20 14 20 23 0 11 3
13 8 6 4 -6 17 -16 30 -23z m18 -125 c17 -17 5 -59 -21 -74 -31 -17 -12 -43
50 -69 48 -20 87 -27 195 -34 254 -17 285 -20 305 -29 11 -5 47 -11 80 -14 71
-7 156 -20 208 -34 49 -13 146 -61 171 -84 11 -10 24 -18 29 -18 15 0 287
-281 287 -296 0 -8 3 -14 8 -14 4 0 18 -18 32 -40 14 -22 28 -40 32 -40 5 0 8
-7 8 -15 0 -8 5 -15 10 -15 6 0 10 -7 10 -15 0 -8 5 -15 10 -15 6 0 10 -6 10
-14 0 -8 4 -16 8 -18 12 -4 68 -89 76 -113 3 -11 16 -31 29 -45 67 -73 77 -94
77 -161 0 -36 4 -69 9 -74 5 -6 11 -61 13 -122 l4 -113 -28 0 c-35 0 -116 18
-140 31 -10 5 -27 9 -37 9 -11 0 -23 5 -26 10 -3 6 -17 10 -30 10 -13 0 -27 5
-30 10 -3 6 -16 10 -28 11 l-22 0 23 16 c33 23 30 69 -9 102 -43 38 -191 111
-224 111 -8 0 -15 4 -15 9 0 4 -24 11 -52 15 -29 3 -76 10 -104 14 -73 11
-290 -7 -341 -29 -46 -19 -79 -32 -103 -41 -46 -19 -55 -25 -69 -50 -19 -33
-1 -79 42 -110 29 -21 30 -21 76 -3 25 10 58 20 74 22 15 3 27 8 27 12 0 4 21
13 48 21 34 11 90 14 207 13 134 -2 169 -5 215 -22 30 -12 62 -21 70 -21 20
-1 55 -28 47 -36 -4 -4 -13 -1 -22 6 -11 9 -74 13 -232 14 -197 1 -227 -1
-313 -22 -87 -22 -137 -39 -150 -52 -3 -3 -34 -20 -69 -39 -36 -18 -86 -56
-112 -82 -53 -54 -69 -58 -132 -31 -23 11 -59 24 -79 31 -47 15 -297 16 -311
2 -6 -6 -19 -11 -29 -11 -10 0 -26 -4 -36 -9 -9 -5 -37 -15 -61 -22 l-43 -13
-37 40 c-39 44 -152 124 -173 124 -19 0 -68 23 -68 33 0 4 -13 7 -30 7 -16 0
-30 4 -30 9 0 21 -296 44 -445 34 -69 -5 -129 -7 -135 -5 -16 6 -1 22 21 22
10 0 27 4 37 9 48 25 112 34 259 35 111 1 168 -3 193 -13 19 -7 44 -16 55 -21
11 -4 31 -12 45 -18 78 -32 88 -34 111 -21 32 17 49 35 49 51 0 8 5 19 11 25
17 17 -23 83 -50 83 -6 0 -33 9 -59 21 -80 36 -86 38 -127 43 -118 17 -233 23
-284 15 -31 -5 -77 -12 -103 -15 -27 -4 -48 -9 -48 -13 0 -4 -21 -13 -47 -20
-25 -8 -77 -29 -115 -48 -67 -32 -88 -39 -88 -27 0 11 32 150 40 174 4 14 13
52 20 85 7 33 16 69 20 80 4 11 13 40 20 65 7 25 16 54 20 65 74 188 85 214
128 286 61 105 175 233 216 244 100 27 110 30 166 52 74 30 211 43 466 43 189
0 263 3 272 12 15 15 16 58 2 58 -14 0 -12 46 2 70 15 23 43 26 64 6z m-1326
-1356 c0 -5 -5 -10 -11 -10 -5 0 -7 5 -4 10 3 6 8 10 11 10 2 0 4 -4 4 -10z
m460 -20 c11 -7 6 -10 -20 -10 -26 0 -31 3 -20 10 8 5 17 10 20 10 3 0 12 -5
20 -10z m1660 -6 c0 -2 -9 -4 -21 -4 -11 0 -18 4 -14 10 5 8 35 3 35 -6z
m-2513 -26 c-3 -8 -6 -5 -6 6 -1 11 2 17 5 13 3 -3 4 -12 1 -19z m963 12 c0
-5 -9 -10 -20 -10 -11 0 -20 5 -20 10 0 6 9 10 20 10 11 0 20 -4 20 -10z
m1440 0 c0 -5 -9 -10 -20 -10 -11 0 -20 5 -20 10 0 6 9 10 20 10 11 0 20 -4
20 -10z m-80 -20 c0 -5 -4 -10 -10 -10 -5 0 -10 5 -10 10 0 6 5 10 10 10 6 0
10 -4 10 -10z m-1455 -20 c3 -5 24 -10 45 -10 21 0 42 -4 45 -10 3 -5 17 -10
30 -10 13 0 27 -4 30 -10 3 -5 14 -10 25 -10 23 0 97 -38 127 -65 12 -11 35
-31 52 -45 17 -14 31 -31 31 -37 0 -7 4 -13 9 -13 10 0 31 -82 30 -115 0 -11
2 -53 4 -93 3 -40 1 -87 -4 -105 -5 -17 -11 -51 -14 -76 -3 -25 -10 -50 -15
-55 -6 -6 -10 -18 -10 -27 0 -19 -41 -102 -52 -107 -5 -2 -8 -10 -8 -19 0 -57
-214 -253 -276 -253 -8 0 -14 -4 -14 -9 0 -10 -15 -13 -165 -35 -55 -8 -102
-13 -106 -10 -4 2 -40 6 -80 9 -40 3 -77 9 -83 15 -5 5 -17 10 -26 10 -37 0
-167 78 -211 127 -34 37 -89 119 -89 132 0 6 -4 11 -10 11 -5 0 -10 8 -10 18
0 10 -4 22 -8 28 -14 16 -32 89 -32 132 0 39 2 42 38 51 30 9 41 18 52 46 8
19 17 35 21 35 3 0 12 14 19 30 7 17 16 30 21 30 5 0 9 9 9 20 0 13 -7 20 -18
20 -25 0 -39 46 -31 100 29 184 34 205 52 227 20 23 105 53 202 71 69 13 412
15 420 2z m1990 0 c3 -5 28 -10 56 -10 27 0 49 -4 49 -10 0 -5 13 -10 29 -10
17 0 33 -4 36 -10 3 -5 15 -10 26 -10 27 0 119 -94 146 -150 12 -25 28 -75 37
-112 19 -80 23 -261 6 -266 -8 -3 -7 -8 1 -19 9 -11 10 -19 2 -32 -6 -9 -14
-45 -18 -79 -4 -34 -11 -62 -16 -62 -5 0 -9 -9 -9 -20 0 -11 -4 -20 -10 -20
-5 0 -10 -8 -10 -18 0 -10 -9 -24 -20 -32 -11 -8 -20 -20 -20 -27 0 -40 -205
-193 -258 -193 -10 0 -24 -6 -30 -12 -18 -18 -329 -18 -363 -1 -13 7 -46 19
-74 28 -93 30 -232 145 -276 227 -30 57 -49 101 -49 115 0 7 -4 13 -10 13 -5
0 -10 11 -10 24 0 14 -4 28 -10 31 -5 3 -10 19 -10 36 0 16 -3 29 -7 29 -14 0
-19 93 -15 261 l2 95 58 60 c82 85 167 127 342 168 67 16 416 21 425 6z
m-2923 -222 c-7 -7 -12 -32 -12 -57 0 -24 -3 -41 -7 -37 -7 7 -5 85 4 98 2 5
9 8 16 8 8 0 8 -3 -1 -12z m-35 -160 c-2 -13 -4 -3 -4 22 0 25 2 35 4 23 2
-13 2 -33 0 -45z m114 -403 c10 -14 -51 -145 -68 -145 -7 0 -22 20 -33 44 -24
53 -24 56 -6 56 16 0 85 74 87 93 1 6 4 1 6 -13 3 -14 9 -30 14 -35z m2969
-285 c0 -5 -4 -10 -10 -10 -5 0 -10 5 -10 10 0 6 5 10 10 10 6 0 10 -4 10 -10z
m-2590 -20 c0 -5 -2 -10 -4 -10 -3 0 -8 5 -11 10 -3 6 -1 10 4 10 6 0 11 -4
11 -10z"/>
<path d="M6645 5180 c-27 -5 -67 -12 -87 -16 -21 -3 -38 -10 -38 -15 0 -5 -7
-9 -16 -9 -34 0 -141 -61 -154 -88 -8 -15 -27 -39 -43 -54 -16 -16 -25 -28
-18 -28 14 0 14 -25 0 -49 -9 -13 -9 -23 -1 -37 8 -14 11 -15 12 -4 0 20 125
140 145 140 8 0 15 3 15 8 0 6 72 33 77 28 3 -3 -23 -75 -30 -82 -4 -4 -7 -39
-7 -77 0 -69 31 -167 52 -167 4 0 8 -6 8 -14 0 -7 10 -20 23 -29 12 -8 32 -24
44 -36 33 -31 61 -39 160 -45 l88 -6 -42 20 c-51 24 -55 43 -13 59 17 6 44 16
60 22 17 6 30 15 30 19 0 13 82 42 92 32 5 -5 5 -20 -1 -35 -13 -34 10 -27 29
9 7 13 17 24 22 24 4 0 8 9 8 19 0 11 5 23 10 26 6 3 10 39 10 79 0 40 3 76 7
80 4 4 40 -27 80 -70 66 -69 91 -79 64 -26 -5 9 -15 31 -22 47 -24 52 -215
234 -247 235 -7 0 -21 5 -32 10 -11 6 -28 14 -38 19 -28 14 -190 21 -247 11z
m80 -125 c31 -30 31 -52 1 -87 -44 -51 -106 -26 -106 42 0 64 61 90 105 45z"/>
<path d="M8465 5183 c-22 -2 -44 -9 -49 -14 -6 -5 -18 -9 -27 -9 -21 0 -99
-41 -99 -52 0 -4 -6 -8 -14 -8 -21 0 -140 -120 -175 -177 -17 -27 -34 -65 -38
-83 l-6 -34 39 45 c21 24 55 59 74 77 l35 33 5 -78 c3 -46 13 -93 23 -114 21
-43 84 -119 98 -119 5 0 19 -8 30 -19 21 -19 68 -31 131 -31 43 0 56 14 33 36
-15 15 -15 18 1 35 9 11 25 19 36 19 10 0 18 4 18 9 0 5 14 14 30 21 17 7 30
16 30 20 0 4 12 12 26 19 31 14 54 1 54 -30 0 -36 19 -19 49 45 43 90 43 157
-2 253 -14 30 -3 39 28 25 14 -7 36 -17 50 -24 14 -6 25 -15 25 -20 0 -4 5 -8
12 -8 16 0 108 -100 108 -117 0 -7 5 -13 10 -13 24 0 4 99 -27 134 -13 15 -23
31 -23 37 0 15 -47 59 -63 59 -7 0 -23 9 -37 20 -14 11 -35 20 -47 20 -13 0
-23 5 -23 10 0 6 -15 10 -33 10 -18 0 -37 4 -42 9 -12 10 -182 20 -240 14z
m-27 -139 c31 -31 -7 -104 -55 -104 -24 0 -73 40 -73 60 0 6 10 22 23 35 33
35 74 39 105 9z"/>
<path d="M9090 4935 c0 -8 4 -15 9 -15 5 0 16 -16 25 -35 21 -44 64 -85 82
-78 18 7 -6 50 -58 104 -40 41 -58 49 -58 24z"/>
<path d="M5243 2686 c-13 -6 -23 -14 -23 -18 0 -5 -7 -8 -15 -8 -19 0 -55 -20
-76 -42 -9 -10 -23 -18 -30 -18 -8 0 -21 -9 -29 -20 -8 -11 -21 -20 -29 -20
-19 0 -191 -175 -191 -194 0 -9 -4 -16 -10 -16 -5 0 -10 -12 -10 -28 0 -16 -8
-32 -19 -39 -15 -10 -18 -20 -14 -60 2 -26 9 -61 15 -78 20 -58 72 -165 80
-165 4 0 8 -9 8 -20 0 -11 3 -20 8 -20 4 0 18 -18 32 -40 14 -22 28 -40 32
-40 5 0 8 -6 8 -13 0 -7 14 -27 30 -45 17 -18 30 -37 30 -41 0 -4 9 -16 20
-26 11 -10 20 -22 20 -27 0 -10 12 -25 58 -73 17 -19 32 -40 32 -47 0 -8 9
-20 20 -28 11 -8 20 -19 20 -25 0 -6 8 -20 19 -31 10 -11 30 -38 43 -60 14
-22 33 -45 42 -53 9 -7 16 -22 16 -32 0 -11 4 -19 9 -19 5 0 13 -9 16 -20 6
-20 15 -20 2275 -20 l2268 0 36 36 c20 20 36 42 36 50 0 8 5 14 10 14 6 0 10
5 10 10 0 6 15 26 33 44 48 51 77 87 77 96 0 5 27 36 60 69 33 33 60 65 60 70
0 5 23 31 50 59 28 28 50 55 50 60 0 6 4 12 8 14 12 4 72 95 72 107 0 6 4 11
8 11 10 0 69 126 88 186 11 37 10 42 -7 55 -10 7 -19 18 -19 24 0 17 -24 65
-32 65 -5 0 -8 9 -8 20 0 11 -4 20 -10 20 -5 0 -10 7 -10 16 0 18 -137 154
-154 154 -7 0 -18 9 -26 20 -8 11 -21 20 -30 20 -9 0 -22 9 -30 20 -8 11 -21
20 -30 20 -9 0 -22 9 -30 20 -8 11 -22 20 -32 20 -10 0 -18 5 -18 10 0 6 -9
10 -20 10 -11 0 -20 5 -20 10 0 6 -7 10 -15 10 -25 0 -17 -27 13 -39 44 -18
80 -42 182 -116 141 -103 211 -181 239 -267 11 -33 9 -50 -9 -125 -12 -49 -27
-95 -34 -103 -8 -8 -22 -33 -32 -55 -15 -33 -153 -229 -173 -245 -7 -6 -71
-77 -161 -180 -36 -41 -76 -86 -90 -100 -23 -24 -25 -24 -28 -5 -7 39 -21 38
-78 -1 l-56 -39 -477 0 c-1134 0 -3778 18 -3796 26 -26 12 -54 30 -79 52 -24
21 -56 22 -57 2 -1 -8 -3 -19 -4 -25 -1 -5 -3 -13 -4 -16 -1 -6 -98 107 -151
176 -19 25 -45 56 -57 70 -13 14 -23 28 -23 32 0 4 -10 17 -23 30 -13 13 -43
52 -67 88 -24 36 -46 67 -49 70 -9 8 -28 40 -62 105 -17 33 -35 62 -40 66 -9
5 -45 136 -50 179 -3 36 11 99 31 140 21 40 121 138 183 178 23 15 48 33 56
40 7 7 42 29 77 49 35 21 64 41 64 45 0 4 9 8 20 8 11 0 20 5 20 10 0 12 -18
11 -47 -4z"/>
<path d="M4770 2219 c0 -5 5 -7 10 -4 6 3 10 8 10 11 0 2 -4 4 -10 4 -5 0 -10
-5 -10 -11z"/>
<path d="M4750 2166 c0 -14 -4 -28 -10 -31 -5 -3 -10 -22 -10 -41 0 -19 -4
-34 -10 -34 -5 0 -10 -18 -10 -40 0 -22 -4 -40 -10 -40 -5 0 -10 -20 -10 -44
0 -25 -4 -48 -10 -51 -5 -3 -10 -26 -10 -50 0 -24 -4 -47 -10 -50 -5 -3 -10
-26 -10 -51 0 -24 -4 -44 -10 -44 -5 0 -10 -20 -10 -44 0 -25 -4 -48 -10 -51
-5 -3 -10 -30 -10 -60 0 -30 -4 -57 -10 -60 -5 -3 -10 -30 -10 -60 0 -30 -4
-57 -10 -60 -5 -3 -10 -17 -10 -31 0 -21 5 -24 34 -24 33 0 34 1 40 48 21 158
38 252 47 246 5 -3 9 12 9 34 0 22 5 63 10 92 16 83 50 349 54 413 2 31 -1 57
-6 57 -4 0 -8 -11 -8 -24z"/>
<path d="M10510 2104 c0 -8 5 -12 10 -9 6 4 8 11 5 16 -9 14 -15 11 -15 -7z"/>
<path d="M10526 1898 c6 -175 19 -356 24 -323 4 32 28 -143 29 -215 1 -46 4
-61 11 -50 6 10 10 11 10 3 0 -8 14 -13 35 -13 32 0 34 2 30 28 -3 15 -9 61
-15 102 -6 41 -17 118 -25 170 -8 52 -15 116 -15 143 0 26 -4 47 -10 47 -5 0
-10 25 -10 55 0 30 -4 55 -10 55 -5 0 -10 23 -10 50 0 28 -4 50 -10 50 -5 0
-10 14 -10 30 0 20 -5 30 -15 30 -13 0 -14 -22 -9 -162z"/>
</g>
</svg>
